<svg width="683" height="683" viewBox="0 0 683 683" fill="none" xmlns="http://www.w3.org/2000/svg">
<g clip-path="url(#clip0_451_11989)">
<rect width="682.667" height="682.667" rx="160" fill="white"/>
<path d="M-1.52588e-05 341.333V682.667H341.333H682.667V341.333V0H341.333H-1.52588e-05V341.333ZM603.467 182C611.467 186.667 615.2 194.667 614.4 205.867C613.467 220.533 604.533 229.333 590.8 229.333C582.533 229.333 576.533 226.933 571.733 221.867C566.933 216.667 565.333 212 565.333 203.2C565.333 195.067 567.333 190.267 572.933 185.2C578.8 179.733 581.467 178.8 589.867 178.667C595.867 178.667 599.067 179.467 603.467 182ZM190.667 259.067C203.733 263.467 211.867 268.133 220.4 276.133L227.333 282.533L213.2 296.667L199.2 310.8L191.067 305.467C179.867 297.867 167.067 295.067 154.8 297.2C139.2 300 129.067 307.6 121.2 322.667C118.533 327.867 118 330.533 118 342C118 354.4 118.267 356 122.4 364.267C127.333 374.4 133.333 380.267 144 385.2C150.133 388.133 153.2 388.667 162.667 388.667C176 388.533 185.867 385.2 194.267 378.133L199.6 373.467L213.733 387.733C221.6 395.6 228 402.4 228 402.933C228 403.333 224.133 406.8 219.467 410.533C190.933 433.2 152.667 437.067 118.933 420.533C96.9333 409.867 80.2667 389.467 73.8667 365.333C70.5333 352.4 70.8 330.133 74.6667 318C84.6667 286.4 106.133 266.133 138.667 257.333C153.067 253.467 176.533 254.267 190.667 259.067ZM455.733 259.067C461.067 260.933 468.667 264.933 472.533 267.867C476.4 270.933 480 273.333 480.4 273.333C480.933 273.333 481.333 270 481.333 266V258.667H503.333H525.333V342.667V426.667H503.333H481.333V419.333C481.333 415.333 481.067 412 480.667 412C480.267 412 476.4 414.667 472 417.867C461.333 425.733 450.4 429.467 434.667 430.267C396.667 432.4 364.667 408.267 353.867 369.333C350.4 356.933 350.4 328 353.867 316C363.067 284.667 384.667 263.333 414 256.533C426 253.867 443.867 254.933 455.733 259.067ZM612 342.667V426.667H589.333H566.667V342.667V258.667H589.333H612V342.667ZM308.533 378.267C322.267 387.867 324.933 407.867 314.267 420.667C302.8 434.533 280.533 433.733 270.267 419.067C265.333 412.133 264 400 267.2 391.6C273.467 375.067 294.4 368.267 308.533 378.267Z" fill="black"/>
<path d="M427.333 297.733C419.067 300.533 414.4 303.333 409.067 308.933C391.867 326.8 392.133 359.733 409.6 377.2C418.667 386.133 425.2 388.667 440 388.667C454.4 388.667 460.4 386.4 469.733 377.467C487.2 360.933 488 328 471.333 309.6C461.333 298.533 441.333 293.2 427.333 297.733Z" fill="black"/>
</g>
<defs>
<clipPath id="clip0_451_11989">
<rect width="682.667" height="682.667" rx="160" fill="white"/>
</clipPath>
</defs>
</svg>
